<svg id="Capa_1" enable-background="new 0 0 512 512" height="512" viewBox="0 0 512 512" width="512" xmlns="http://www.w3.org/2000/svg"><g><g><path d="m39.785 189.534h432.43v314.964h-432.43z" fill="#eaf6ff"/><path d="m442.215 189.534h30v314.964h-30z" fill="#d8ecfe"/><path d="m496.5 189.534h-481c-4.418 0-8-3.582-8-8v-41.48c0-4.418 3.582-8 8-8h481c4.418 0 8 3.582 8 8v41.48c0 4.419-3.582 8-8 8z" fill="#3d6d93"/><path d="m496.5 132.054h-30c4.418 0 8 3.582 8 8v41.48c0 4.418-3.582 8-8 8h30c4.418 0 8-3.582 8-8v-41.48c0-4.418-3.582-8-8-8z" fill="#335e80"/><path d="m73.838 189.534h304.323v314.964h-304.323z" fill="#d8ecfe"/><path d="m408.162 504.498h-304.324v-379.021l152.162-90 152.162 90z" fill="#eaf6ff"/><path d="m378.162 110.477v394.021h30v-379.021z" fill="#d8ecfe"/><path d="m429.454 142.883-169.427-74.538c-2.566-1.129-5.488-1.129-8.054 0l-169.427 74.538c-6.609 2.908-14.027-1.933-14.027-9.153v-38.15c0-3.966 2.343-7.556 5.973-9.153l177.481-78.082c2.566-1.129 5.488-1.129 8.054 0l177.481 78.082c3.63 1.597 5.973 5.188 5.973 9.153v38.15c0 7.22-7.418 12.061-14.027 9.153z" fill="#f68895"/><path d="m224.048 20.63 183.46 80.796c3.63 1.597 5.973 5.188 5.973 9.153v25.276l15.973 7.027c6.609 2.908 14.027-1.933 14.027-9.153v-38.149c0-3.965-2.343-7.557-5.973-9.153l-177.481-78.082c-2.566-1.129-5.488-1.129-8.054 0z" fill="#f1717f"/><path d="m316.634 504.498h-121.268v-111.319c0-33.487 27.147-60.634 60.634-60.634 33.487 0 60.634 27.147 60.634 60.634z" fill="#3d6d93"/><path d="m256 332.545c-5.178 0-10.202.653-15 1.874 26.232 6.676 45.634 30.451 45.634 58.761v111.319h30v-111.32c0-33.487-27.146-60.634-60.634-60.634z" fill="#335e80"/><g><g><path d="m256 300.498 105.947-14.779v-136.18c0-4.081-3.288-7.39-7.343-7.39h-77.624c-11.587 0-20.98 9.453-20.98 21.113z" fill="#ffd0bb"/><path d="m361.947 268.828h-74.478c-17.38 0-31.469 14.179-31.469 31.67h98.604c4.055 0 7.343-3.308 7.343-7.39z" fill="#ffc4aa"/></g><g><path d="m256 300.498-105.947-14.779v-136.18c0-4.081 3.288-7.39 7.343-7.39h77.625c11.587 0 20.98 9.453 20.98 21.113v137.236z" fill="#ffdbcc"/><path d="m150.053 268.828h74.478c17.38 0 31.469 14.179 31.469 31.67h-98.604c-4.055 0-7.343-3.308-7.343-7.39z" fill="#ffd0bb"/></g></g></g><path d="m287.47 212.988h43.008c4.143 0 7.5-3.358 7.5-7.5s-3.357-7.5-7.5-7.5h-43.008c-4.143 0-7.5 3.358-7.5 7.5s3.357 7.5 7.5 7.5zm0-31.669h43.008c4.143 0 7.5-3.358 7.5-7.5s-3.357-7.5-7.5-7.5h-43.008c-4.143 0-7.5 3.358-7.5 7.5s3.357 7.5 7.5 7.5zm-105.948 0h43.008c4.143 0 7.5-3.358 7.5-7.5s-3.357-7.5-7.5-7.5h-43.008c-4.143 0-7.5 3.358-7.5 7.5s3.358 7.5 7.5 7.5zm-38.969-31.78v143.57c0 8.21 6.658 14.89 14.843 14.89h197.209c8.185 0 14.843-6.68 14.843-14.89v-143.57c0-8.21-6.658-14.89-14.843-14.89h-77.625c-8.294 0-15.77 3.583-20.979 9.286-5.209-5.704-12.685-9.286-20.979-9.286h-77.625c-8.186 0-14.844 6.68-14.844 14.89zm211.894 143.459h-89.767c3.137-9.667 12.167-16.67 22.789-16.67h66.978zm-90.947-129.736c0-7.506 6.047-13.613 13.479-13.613h77.468v111.679h-66.977c-9.034 0-17.353 3.115-23.97 8.32zm-105.947-13.613h77.468c7.433 0 13.479 6.107 13.479 13.613v106.386c-6.616-5.205-14.936-8.32-23.97-8.32h-66.978v-111.679zm0 126.679h66.978c10.622 0 19.652 7.002 22.789 16.67h-89.767zm314.657 85.744c4.143 0 7.5-3.358 7.5-7.5v-157.534h16.79c8.547 0 15.5-6.953 15.5-15.5v-41.48c0-8.547-6.953-15.5-15.5-15.5h-45.519v-28.978c0-6.937-4.103-13.225-10.452-16.019l-177.482-78.082c-4.479-1.97-9.614-1.97-14.095 0l-177.481 78.083c-6.35 2.793-10.452 9.081-10.452 16.018v28.978h-45.519c-8.547 0-15.5 6.953-15.5 15.5v41.48c0 8.547 6.953 15.5 15.5 15.5h16.79v299.96h-24.79c-4.143 0-7.5 3.358-7.5 7.5s3.357 7.5 7.5 7.5h497c4.143 0 7.5-3.358 7.5-7.5s-3.357-7.5-7.5-7.5h-24.79v-107.426c0-4.142-3.357-7.5-7.5-7.5s-7.5 3.358-7.5 7.5v107.426h-49.05v-299.96h49.05v157.534c0 4.142 3.357 7.5 7.5 7.5zm-375.87 134.926h-49.05v-299.96h49.05zm0-314.96h-80.84c-.271 0-.5-.229-.5-.5v-41.48c0-.276.225-.5.5-.5h46.52c3.226 9.342 14.37 14.311 23.547 10.19l10.773-4.74zm212.795 314.96h-106.27v-103.819c0-29.298 23.836-53.134 53.135-53.134s53.135 23.836 53.135 53.134zm-46.088-435.519c-4.479-1.97-9.614-1.97-14.095 0l-62.275 27.397c-3.791 1.668-5.513 6.094-3.845 9.885 1.669 3.792 6.096 5.513 9.886 3.845l62.274-27.398c.641-.282 1.376-.282 2.015 0l143.653 63.2v358.588h-76.525v-103.817c0-37.569-30.565-68.134-68.135-68.134s-68.135 30.565-68.135 68.134v103.819h-76.525v-358.589l49.384-21.726c3.791-1.668 5.513-6.094 3.845-9.885-1.669-3.792-6.096-5.513-9.886-3.845l-75.157 33.065c-1.866.736-3.428-.282-3.507-2.288-.059-1.5 0-36.514 0-38.15 0-.991.586-1.889 1.493-2.288l177.48-78.082c.641-.282 1.376-.282 2.015 0l177.481 78.082c.907.399 1.493 1.297 1.493 2.289v38.15c0 2.01-1.637 3.027-3.507 2.288zm152.613 120.559v-37.029l10.773 4.74c9.09 4.071 20.294-.767 23.547-10.19h46.52c.275 0 .5.224.5.5v41.48c0 .271-.229.5-.5.5h-80.84zm-183.63 55.12c0-4.142-3.357-7.5-7.5-7.5h-43.008c-4.143 0-7.5 3.358-7.5 7.5s3.357 7.5 7.5 7.5h43.008c4.143 0 7.5-3.358 7.5-7.5zm98.448 7.5c4.143 0 7.5-3.358 7.5-7.5s-3.357-7.5-7.5-7.5h-43.008c-4.143 0-7.5 3.358-7.5 7.5s3.357 7.5 7.5 7.5zm-148.956-31.67h43.008c4.143 0 7.5-3.358 7.5-7.5s-3.357-7.5-7.5-7.5h-43.008c-4.143 0-7.5 3.358-7.5 7.5s3.358 7.5 7.5 7.5z"/></g></svg>